<mxfile host="app.diagrams.net" modified="2023-04-04T07:18:36.552Z" agent="5.0 (Macintosh; Intel Mac OS X 10_15_7) AppleWebKit/537.36 (KHTML, like Gecko) Chrome/110.0.0.0 Safari/537.36" etag="wS9VBRVBUsPar6PoDjLT" version="20.8.20" type="github">
  <diagram name="第 1 页" id="TnKgWU5buu2Q5FdQvuDq">
    <mxGraphModel dx="948" dy="603" grid="1" gridSize="10" guides="1" tooltips="1" connect="1" arrows="1" fold="1" page="1" pageScale="1" pageWidth="827" pageHeight="1169" math="0" shadow="0">
      <root>
        <mxCell id="0" />
        <mxCell id="1" parent="0" />
        <mxCell id="hAWt6sFsW6570iFKJtzD-9" value="" style="group" vertex="1" connectable="0" parent="1">
          <mxGeometry x="340" y="120" width="120" height="460" as="geometry" />
        </mxCell>
        <mxCell id="hAWt6sFsW6570iFKJtzD-1" value="client" style="rounded=1;whiteSpace=wrap;html=1;fillColor=#dae8fc;strokeColor=#6c8ebf;" vertex="1" parent="hAWt6sFsW6570iFKJtzD-9">
          <mxGeometry width="120" height="60" as="geometry" />
        </mxCell>
        <mxCell id="hAWt6sFsW6570iFKJtzD-2" value="web-server" style="rounded=0;whiteSpace=wrap;html=1;" vertex="1" parent="hAWt6sFsW6570iFKJtzD-9">
          <mxGeometry y="120" width="120" height="60" as="geometry" />
        </mxCell>
        <mxCell id="hAWt6sFsW6570iFKJtzD-6" style="edgeStyle=orthogonalEdgeStyle;rounded=0;orthogonalLoop=1;jettySize=auto;html=1;entryX=0.5;entryY=0;entryDx=0;entryDy=0;" edge="1" parent="hAWt6sFsW6570iFKJtzD-9" source="hAWt6sFsW6570iFKJtzD-1" target="hAWt6sFsW6570iFKJtzD-2">
          <mxGeometry relative="1" as="geometry" />
        </mxCell>
        <mxCell id="hAWt6sFsW6570iFKJtzD-3" value="service" style="shape=hexagon;perimeter=hexagonPerimeter2;whiteSpace=wrap;html=1;fixedSize=1;fillColor=#d5e8d4;strokeColor=#82b366;" vertex="1" parent="hAWt6sFsW6570iFKJtzD-9">
          <mxGeometry y="240" width="120" height="80" as="geometry" />
        </mxCell>
        <mxCell id="hAWt6sFsW6570iFKJtzD-7" style="edgeStyle=orthogonalEdgeStyle;rounded=0;orthogonalLoop=1;jettySize=auto;html=1;entryX=0.5;entryY=0;entryDx=0;entryDy=0;" edge="1" parent="hAWt6sFsW6570iFKJtzD-9" source="hAWt6sFsW6570iFKJtzD-2" target="hAWt6sFsW6570iFKJtzD-3">
          <mxGeometry relative="1" as="geometry" />
        </mxCell>
        <mxCell id="hAWt6sFsW6570iFKJtzD-4" value="dao" style="ellipse;whiteSpace=wrap;html=1;" vertex="1" parent="hAWt6sFsW6570iFKJtzD-9">
          <mxGeometry x="30" y="290" width="60" height="30" as="geometry" />
        </mxCell>
        <mxCell id="hAWt6sFsW6570iFKJtzD-5" value="db/cache" style="shape=dataStorage;whiteSpace=wrap;html=1;fixedSize=1;fillColor=#e1d5e7;strokeColor=#9673a6;" vertex="1" parent="hAWt6sFsW6570iFKJtzD-9">
          <mxGeometry x="10" y="380" width="100" height="80" as="geometry" />
        </mxCell>
        <mxCell id="hAWt6sFsW6570iFKJtzD-8" style="edgeStyle=orthogonalEdgeStyle;rounded=0;orthogonalLoop=1;jettySize=auto;html=1;entryX=0.5;entryY=0;entryDx=0;entryDy=0;" edge="1" parent="hAWt6sFsW6570iFKJtzD-9" source="hAWt6sFsW6570iFKJtzD-4" target="hAWt6sFsW6570iFKJtzD-5">
          <mxGeometry relative="1" as="geometry" />
        </mxCell>
        <mxCell id="hAWt6sFsW6570iFKJtzD-11" value="client" style="rounded=1;whiteSpace=wrap;html=1;fillColor=#dae8fc;strokeColor=#6c8ebf;" vertex="1" parent="1">
          <mxGeometry x="610" y="120" width="120" height="60" as="geometry" />
        </mxCell>
        <mxCell id="hAWt6sFsW6570iFKJtzD-20" value="" style="edgeStyle=orthogonalEdgeStyle;rounded=0;orthogonalLoop=1;jettySize=auto;html=1;" edge="1" parent="1" source="hAWt6sFsW6570iFKJtzD-12" target="hAWt6sFsW6570iFKJtzD-19">
          <mxGeometry relative="1" as="geometry" />
        </mxCell>
        <mxCell id="hAWt6sFsW6570iFKJtzD-12" value="web-server" style="rounded=0;whiteSpace=wrap;html=1;" vertex="1" parent="1">
          <mxGeometry x="610" y="210" width="120" height="60" as="geometry" />
        </mxCell>
        <mxCell id="hAWt6sFsW6570iFKJtzD-13" style="edgeStyle=orthogonalEdgeStyle;rounded=0;orthogonalLoop=1;jettySize=auto;html=1;entryX=0.5;entryY=0;entryDx=0;entryDy=0;" edge="1" parent="1" source="hAWt6sFsW6570iFKJtzD-11" target="hAWt6sFsW6570iFKJtzD-12">
          <mxGeometry relative="1" as="geometry" />
        </mxCell>
        <mxCell id="hAWt6sFsW6570iFKJtzD-14" value="service" style="shape=hexagon;perimeter=hexagonPerimeter2;whiteSpace=wrap;html=1;fixedSize=1;fillColor=#d5e8d4;strokeColor=#82b366;" vertex="1" parent="1">
          <mxGeometry x="610" y="410" width="120" height="70" as="geometry" />
        </mxCell>
        <mxCell id="hAWt6sFsW6570iFKJtzD-16" value="dao" style="ellipse;whiteSpace=wrap;html=1;" vertex="1" parent="1">
          <mxGeometry x="640" y="450" width="60" height="30" as="geometry" />
        </mxCell>
        <mxCell id="hAWt6sFsW6570iFKJtzD-17" value="db/cache" style="shape=dataStorage;whiteSpace=wrap;html=1;fixedSize=1;fillColor=#e1d5e7;strokeColor=#9673a6;" vertex="1" parent="1">
          <mxGeometry x="620" y="520" width="100" height="60" as="geometry" />
        </mxCell>
        <mxCell id="hAWt6sFsW6570iFKJtzD-18" style="edgeStyle=orthogonalEdgeStyle;rounded=0;orthogonalLoop=1;jettySize=auto;html=1;entryX=0.5;entryY=0;entryDx=0;entryDy=0;" edge="1" parent="1" source="hAWt6sFsW6570iFKJtzD-16" target="hAWt6sFsW6570iFKJtzD-17">
          <mxGeometry relative="1" as="geometry" />
        </mxCell>
        <mxCell id="hAWt6sFsW6570iFKJtzD-21" value="" style="edgeStyle=orthogonalEdgeStyle;rounded=0;orthogonalLoop=1;jettySize=auto;html=1;" edge="1" parent="1" source="hAWt6sFsW6570iFKJtzD-19">
          <mxGeometry relative="1" as="geometry">
            <mxPoint x="670" y="410" as="targetPoint" />
          </mxGeometry>
        </mxCell>
        <mxCell id="hAWt6sFsW6570iFKJtzD-19" value="biz-service" style="shape=hexagon;perimeter=hexagonPerimeter2;whiteSpace=wrap;html=1;fixedSize=1;" vertex="1" parent="1">
          <mxGeometry x="610" y="300" width="120" height="80" as="geometry" />
        </mxCell>
        <mxCell id="hAWt6sFsW6570iFKJtzD-22" value="" style="shape=flexArrow;endArrow=classic;html=1;rounded=0;" edge="1" parent="1">
          <mxGeometry width="50" height="50" relative="1" as="geometry">
            <mxPoint x="490" y="360" as="sourcePoint" />
            <mxPoint x="560" y="360" as="targetPoint" />
            <Array as="points">
              <mxPoint x="530" y="360" />
            </Array>
          </mxGeometry>
        </mxCell>
      </root>
    </mxGraphModel>
  </diagram>
</mxfile>
